# xmcd
#
# Track frame offsets:
#	150
#	21368
#	36291
#	55245
#	86948
#	113543
#	131769
#	147722
#	169179
#	182484
#	200582
#	226409
#	250329
#	269627
#	303724
#
# Disc length: 4359 seconds
#
# Revision: 0
# Processed by: cddbd v1.5.2PL0 Copyright (c) Steve Scherf et al.
# Submitted via: audiograbber 1.83.01
#
DISCID=e511050f
DTITLE=Young, Neil - Heart of Gold Live 10CD06
DYEAR=1987
DGENRE=POP-ROCK-JAZZ
TTITLE0=Mr. Soul
TTITLE1=Cinnamon girl
TTITLE2=When you dance I can really love
TTITLE3=Down by the river
TTITLE4=Drive back
TTITLE5=Born to rock
TTITLE6=Heart of gold
TTITLE7=Sugar mountain
TTITLE8=The needle and the damage done
TTITLE9=After the gold rush
TTITLE10=Sample an hold
TTITLE11=Computer age
TTITLE12=Violent side
TTITLE13=Like a hurricane
TTITLE14=My my, hey hey (out of the blue)
EXTD=
EXTT0=
EXTT1=
EXTT2=
EXTT3=
EXTT4=
EXTT5=
EXTT6=
EXTT7=
EXTT8=
EXTT9=
EXTT10=
EXTT11=
EXTT12=
EXTT13=
EXTT14=
PLAYORDER=
